<!--
    Made by https://www.flaticon.com/authors/freepik from Flaticon
    Licensed under https://www.flaticon.com/legal
-->
<svg xmlns="http://www.w3.org/2000/svg" viewBox="0 0 512 512"><path fill="#a86d38" d="M256.49 165.67a10.03 10.03 0 00-17.95 0l-35.38 70.77a11.69 11.69 0 01-20.9 0 10.03 10.03 0 00-17.95 0L99.26 364.52l54.98 109.97h48.8L307.47 265.6l-50.98-99.94z"/><path fill="#995f30" d="M203.93 236.44a11.69 11.69 0 0020.9 0l33.54-67.07-1.88-3.7a10.03 10.03 0 00-17.94 0l-35.03 70.06c.14.24.29.46.41.7zm-81.75 125.62l62.27-122.58a11.8 11.8 0 01-2.2-3.04 10.03 10.03 0 00-17.93 0L99.26 364.52l54.98 109.96h21.68l-53.75-107.5a5.47 5.47 0 01.01-4.92z"/><path fill="#b78046" d="M294.98 461.6c.12-8.94 5.9-13.25 13.21-12.4a3.38 3.38 0 003.75-2.74c3.83-20.03 30.69-24.54 40.82-6.74 2.68 4.7 6.28-1.04 15.3 1.88a3.93 3.93 0 003.48-.51 19.32 19.32 0 0114.85-3.14 2.9 2.9 0 003.5-2.4 31.34 31.34 0 0131.05-27.16 31.3 31.3 0 0127.3 16 5.24 5.24 0 006.16 2.5 25.34 25.34 0 0129 10.4L363.07 194.6a11.8 11.8 0 00-21.1 0l-139.95 279.9h104.63c-7.63 0-11.78-5.23-11.67-12.89z"/><path fill="#995f30" d="M363.07 194.59a11.8 11.8 0 00-21.1 0l-139.95 279.9h21.65l139.67-279.34-.27-.56z"/><path fill="#b78046" d="M155.26 474.49H19.03L82.37 347.8a5.34 5.34 0 019.55 0l63.34 126.69z"/><path fill="#a86d38" d="M91.92 347.8a5.34 5.34 0 00-9.55 0L19.02 474.5h20.81l57.71-115.43-5.62-11.26z"/><path fill="#cc9562" d="M303.68 297.5a9.37 9.37 0 0013.65-.97l8.71-10.76a9.37 9.37 0 0113.4-1.2l16.26 14a9.37 9.37 0 0012.81-.56l30.62-31.29-36.06-72.13a11.8 11.8 0 00-21.1 0l-47.3 94.58 9.01 8.33z"/><path fill="#b78046" d="M363.07 194.59a12.23 12.23 0 00-1.11-1.78c-5.06-6.85-15.97-6.27-20 1.78l-40.21 80.44-7.07 14.14 9 8.33a9.33 9.33 0 007.26 2.44l52.4-104.8-.27-.55z"/><path fill="#cc9562" d="M50.45 411.64l1.82 1.69a7.2 7.2 0 0010.48-.75l6.69-8.25a7.2 7.2 0 0110.28-.92l12.48 10.73a7.2 7.2 0 009.83-.42l15.12-15.45-25.23-50.47a5.34 5.34 0 00-9.55 0l-31.92 63.84z"/><path fill="#b78046" d="M82.37 347.8l-15.9 31.8-16.02 32.04 1.82 1.69a7.2 7.2 0 0010.48-.75l6.69-8.25a7.18 7.18 0 016.75-2.56l21.35-42.71-5.62-11.26a5.25 5.25 0 00-2.7-2.53 5.4 5.4 0 00-2.08-.42c-1.9 0-3.79.98-4.77 2.95z"/><circle cx="139.88" cy="111.33" r="37.93" fill="#fed159"/><path fill="#fcb75b" d="M122.25 111.33a37.94 37.94 0 0127.78-36.55 37.93 37.93 0 00-10.15-1.38 37.93 37.93 0 1010.15 74.47 37.94 37.94 0 01-27.78-36.54z"/><path fill="#fed159" d="M139.88 59.6a7.61 7.61 0 01-7.61-7.6V37.52a7.61 7.61 0 1115.22 0v14.47a7.61 7.61 0 01-7.61 7.62zm0 133.15a7.61 7.61 0 01-7.61-7.61v-14.48a7.61 7.61 0 1115.22 0v14.48a7.61 7.61 0 01-7.61 7.61zm-47.34-118L82.3 64.53a7.61 7.61 0 0110.77-10.77L103.3 64a7.61 7.61 0 01-10.77 10.77zm94.15 94.15l-10.24-10.24a7.61 7.61 0 0110.77-10.76l10.23 10.24a7.61 7.61 0 01-10.76 10.76zM80.55 118.94H66.07a7.61 7.61 0 110-15.22h14.48a7.61 7.61 0 010 15.22zm133.14 0h-14.48a7.61 7.61 0 110-15.22h14.48a7.61 7.61 0 110 15.22zM82.3 168.9a7.61 7.61 0 010-10.76l10.24-10.24a7.61 7.61 0 0110.77 10.77L93.07 168.9a7.61 7.61 0 01-10.77 0zm94.15-94.14a7.61 7.61 0 010-10.77l10.24-10.24a7.61 7.61 0 0110.76 10.77l-10.23 10.24a7.61 7.61 0 01-10.77 0z"/><path fill="#99cc56" d="M495.54 441.16a16.48 16.48 0 00-4.88.67 4.19 4.19 0 01-5.03-2.39c-4.95-11.94-18.34-18.71-31.23-14.57a5.24 5.24 0 01-6.15-2.52 31.3 31.3 0 00-27.31-16c-15.9 0-29 11.84-31.05 27.17a2.9 2.9 0 01-3.5 2.4 19.32 19.32 0 00-14.85 3.14 3.94 3.94 0 01-3.48.5c-9.05-2.92-12.61 2.85-15.3-1.87-10.13-17.8-37-13.3-40.82 6.74a3.38 3.38 0 01-3.75 2.74 13.8 13.8 0 00-15.24 13.42 13.7 13.7 0 0013.7 13.9h188.69c9.43 0 17.03-7.84 16.65-17.35a16.8 16.8 0 00-16.45-15.98z"/><g fill="#8dbc42"><path d="M313.25 460.59a13.8 13.8 0 0115.24-13.42 3.38 3.38 0 003.74-2.74 22.09 22.09 0 0111.53-15.41 22.06 22.06 0 00-31.82 15.41 3.38 3.38 0 01-3.75 2.74 13.8 13.8 0 00-15.24 13.42 13.7 13.7 0 0013.7 13.9h20.3a13.7 13.7 0 01-13.7-13.9z"/><path d="M477.23 474.49a7.61 7.61 0 01-7.61 7.6h-462a7.61 7.61 0 110-15.22h462a7.61 7.61 0 017.61 7.62z"/></g></svg>
