<!--
    Modified from: https://github.com/nextcloud/promo/blob/20576e9/nextcloud-logo-inverted.svg
    Copyright: Nextcloud GmbH
    License: Fair Use
-->
<svg xmlns="http://www.w3.org/2000/svg" viewBox="0 0 133.9 94.6"><path fill="#0082c9" d="M67 10a26 26 0 00-24.9 18.8A17 17 0 0027 19.1 17 17 0 0010 35.9a17 17 0 0016.9 16.9A17 17 0 0042 43a26 26 0 0025 18.8 26 26 0 0024.8-18.6 17 17 0 0015.1 9.6A17 17 0 00124 35.9 17 17 0 00107 19.1 17 17 0 0092 28.6 26 26 0 0067 10zm0 9.9c9 0 16 7.1 16 16 0 9-7 16-16 16-8.9 0-16-7-16-16 0-8.9 7.1-16 16-16zm-40.1 9c3.9 0 7 3.1 7 7 0 4-3.1 7-7 7-4 0-7-3-7-7 0-3.9 3-7 7-7zm80.1 0c4 0 7 3.1 7 7 0 4-3 7-7 7-3.9 0-7-3-7-7 0-3.9 3.1-7 7-7z" color="#000" font-family="sans-serif" font-weight="400" overflow="visible" style="line-height:normal;text-indent:0;text-align:start;text-decoration-line:none;text-decoration-style:solid;text-decoration-color:#000;text-transform:none;block-progression:tb;white-space:normal;isolation:auto;mix-blend-mode:normal;solid-color:#000;solid-opacity:1"/><g fill="#0082c9"><path d="M39.1 73.8c2.8 0 4.3 2 4.3 4.9 0 .3-.2.5-.5.5h-7.5c0 2.7 2 4.2 4 4.2 1.4 0 2.3-.6 2.8-1 .2-.2.5-.1.6.2l.2.2c.1.2 0 .5-.2.7-.5.4-1.8 1-3.4 1-3 0-5.4-2.1-5.4-5.3 0-3.4 2.3-5.4 5.1-5.4zm2.9 4.4c-.1-2.2-1.4-3.3-3-3.3-1.7 0-3.2 1.2-3.5 3.3H42zM57.6 75.3v-3.7c0-.3.1-.5.5-.5h.4c.3 0 .4.2.4.5v2.5H61c.4 0 .6.2.6.5v.1c0 .4-.2.5-.6.5h-2v5.2c0 2.4 1.4 2.7 2.2 2.7.4 0 .5.2.5.5v.3c0 .4 0 .5-.5.5-2.3 0-3.6-1.4-3.6-3.8v-5.3zM68.3 73.8c1.8 0 3 .7 3.5 1.1.2.2.2.5 0 .7l-.1.3c-.2.3-.4.3-.7 0-.5-.3-1.4-.9-2.6-.9-2.3 0-4 1.7-4 4.2a4 4 0 004 4.2c1.4 0 2.4-.7 2.9-1.1.3-.2.5-.2.7.1l.1.2c.1.3 0 .5-.1.7-.6.4-1.8 1.3-3.7 1.3-3 0-5.4-2.2-5.4-5.4s2.4-5.4 5.4-5.4zM74.6 70.4c0-.3-.2-.5.1-.5h.4c.3 0 .9.2.9.5v11.3c0 1.3.6 1.4 1 1.5.3 0 .5.1.5.4v.4c0 .3-.2.5-.6.5-.8 0-2.3-.3-2.3-2.6V70.4zM84.2 73.8c3 0 5.5 2.3 5.5 5.3 0 3.1-2.5 5.5-5.5 5.5s-5.4-2.4-5.4-5.5c0-3 2.4-5.3 5.4-5.3zm0 9.6c2.2 0 4-1.8 4-4.3a4 4 0 00-4-4 4 4 0 00-4 4c0 2.4 1.8 4.3 4 4.3zM107.7 73.8c2.5 0 3.4 2 3.4 2V70.4c0-.4-.1-.5.2-.5h.4c.3 0 .8.1.8.5v13.4c0 .3-.1.5-.5.5h-.3c-.3 0-.5-.1-.5-.5V83v-.6s-.9 2.1-3.5 2.1c-2.8 0-4.6-2.2-4.6-5.4s1.9-5.3 4.6-5.3zm0 9.6c1.8 0 3.4-1.3 3.4-4.2 0-2.1-1-4.2-3.3-4.2-1.8 0-3.3 1.5-3.3 4.2 0 2.5 1.3 4.2 3.3 4.2zM21.9 84.3h.3c.4 0 .6-.1.6-.5v-10c0-1.7 1.7-2.8 3.7-2.8s3.7 1.1 3.7 2.7v10.1c0 .4.2.5.5.5h.4c.3 0 .4-.1.4-.5V73.7c0-2.7-2.6-4-5-4s-5.1 1.3-5.1 4v10.1c0 .4.1.5.5.5zM100.4 74h-.4c-.3 0-.5.2-.5.5v5.7c0 1.6-1 3-3 3s-3.1-1.4-3.1-3v-5.7c0-.3-.2-.5-.6-.5h-.3c-.4 0-.5.2-.5.5v6c0 2.8 2 4 4.4 4 2.5 0 4.4-1.2 4.4-4v-6c0-.3-.1-.5-.4-.5zM53.8 74l-.3.1-2 2.3-1.4 1.7-2.1-2.6-1.2-1.4a.5.5 0 00-.3-.2c-.2 0-.3 0-.4.2l-.3.2c-.3.2-.2.5 0 .7l1.9 2.3 1.6 1.9-2.4 2.7-1.1 1.4c-.2.3-.2.5 0 .7l.3.3c.3.2.5.1.7-.1l2-2.3 1.3-1.7 2.2 2.6 1.2 1.4c.2.2.4.3.7 0l.3-.2c.2-.2.2-.4 0-.7l-1.9-2.2-1.6-2 2.3-2.7 1.2-1.4c.2-.2.2-.5 0-.7l-.3-.3c-.2 0-.3-.1-.4 0z"/></g></svg>