<!--
    Modified from: https://github.com/ShokoAnime/ShokoServer-WebUI/blob/9da9af2/public/logo.png
    Copyright: 2016-2021 Contributors to the ShokoServer-WebUI project
    License: Fair Use
-->
<svg xmlns="http://www.w3.org/2000/svg" baseProfile="tiny-ps" version="1.2" viewBox="0 0 512 512"><path fill="#00bfe8" d="M96.5 2c-5 1-12.4 3.1-16.5 4.6C75.9 8 68.9 11 64.5 13.4c-4.4 2.2-11.6 6.7-16 10-4.4 3.2-11.3 9.3-15.4 13.5a133.2 133.2 0 00-21 29.9A145.1 145.1 0 001.5 99.5C.2 107.3 0 126.9 0 256.7c0 143 0 148.6 2 158A148 148 0 006.5 432c1.5 4.1 4 10.2 5.6 13.5A132.3 132.3 0 0035 477 138 138 0 0052 491c4.7 3.1 11.2 7 14.5 8.7 3.3 1.6 9.4 4.1 13.5 5.6s11.9 3.6 17.3 4.7c9.4 1.8 15 1.9 158.7 1.9s149.3 0 158.8-2a148 148 0 0017.2-4.6c4.1-1.4 10.2-4 13.5-5.6a136.5 136.5 0 0046-40.3c3-4.4 7.2-11.8 9.4-16.5 2.2-4.7 5-12.3 6.4-17 1.4-4.7 3-12.1 3.6-16.5.9-5.8 1.1-49.2.9-158.5l-.3-150.5c-4-14.7-6.8-22.6-8.6-27-1.8-4.4-5.6-11.7-8.4-16.3A153 153 0 00483 41.4a128 128 0 00-30-24.9c-4.1-2.4-10.9-5.8-15-7.5-4.1-1.8-11.8-4.3-17-5.8L411.5.5C111.5.1 105.1.2 96.5 2z"/><path fill="#162850" d="M108 20.6l-10 2c-4.1.9-11.3 3.2-16 5.1-4.7 2-12.3 6-17 9-4.7 3.1-11.7 8.8-15.5 12.7-4 4-9 9.8-11.2 13.1a123.5 123.5 0 00-13.2 26.3c-1.2 3.4-2.8 10.1-3.6 15-1.3 7.5-1.5 28.7-1.5 152.2 0 123.5.2 144.7 1.5 152.3.8 4.8 2.4 11.5 3.6 15a123.5 123.5 0 0013.2 26.2c2.3 3.3 7.3 9.2 11.2 13 3.8 4 10.8 9.7 15.5 12.7 4.7 3.1 12.3 7.2 17 9.1 4.7 2 12.1 4.3 16.5 5.3 7.6 1.8 15.5 1.9 157.5 1.9s149.9 0 157.5-1.9c4.4-1 11.8-3.4 16.5-5.3 4.7-2 12.3-6 17-9 4.7-3 11.7-8.8 15.6-12.7 3.9-3.9 8.9-9.8 11.1-13.1a123.5 123.5 0 0013.2-26.3c1.2-3.4 2.8-10.1 3.6-15 1.3-7.5 1.5-28.7 1.5-152.2 0-123.5-.2-144.7-1.5-152.3-.8-4.8-2.4-11.5-3.6-15a123.5 123.5 0 00-13.2-26.2c-2.3-3.3-7.3-9.2-11.1-13-4-4-11-9.7-15.6-12.7-4.7-3-11.9-7-16-8.7-4.1-1.8-11.1-4.2-15.5-5.4l-8-2.1c-230.2-.3-298.1-.2-299.5 0z"/><path fill="#f6f6f6" d="M240.5 94.1a192 192 0 00-32 6.6 126.3 126.3 0 00-29.5 13.8 115.2 115.2 0 00-26.8 27.5 92.5 92.5 0 00-10.3 32 96.3 96.3 0 004.1 39c1.7 4.7 4.4 11 6.3 13.9a98.6 98.6 0 0023.8 24.7c4 2.8 10.3 6.7 13.9 8.7 3.6 2 10.8 5.4 16 7.7 5.2 2.3 20.3 7.8 33.5 12.2 13.2 4.4 28 9.9 33 12.3a77 77 0 0114 8.7c2.8 2.5 6 6.4 7.2 8.9A45 45 0 01297 321a34.7 34.7 0 01-4.3 23.8c-1.8 3-5.2 6.9-7.7 8.7a73.6 73.6 0 01-8.8 5.4 66.6 66.6 0 01-11 3.8 85.3 85.3 0 01-20.7 1.6c-10.4 0-16.7-.6-24.5-2.2-5.8-1.3-14.3-3.7-19-5.4a133.8 133.8 0 01-31.1-17.4 46.8 46.8 0 00-7.7-5.2c-.4 0-9 9.3-19 20.5L125 375c9.7 8.7 16.6 13.9 21.5 17.2 5 3.3 13 8 18 10.3A194 194 0 00183 410c5.2 1.8 14.4 4.3 20.5 5.5a231.7 231.7 0 0079 1.5 180 180 0 0022.5-5.6c5.8-2 14.5-5.6 19.4-8.2a103.6 103.6 0 0030.8-25c3.3-4.2 7.9-11.3 10-15.7a109 109 0 006.6-17.5 76.6 76.6 0 002.5-24.5c0-10-.6-17.3-1.6-22a84.1 84.1 0 00-9.7-25.8c-2-3.2-5.6-8.2-8-11a106.4 106.4 0 00-25.5-20.3c-4.4-2.6-12.5-6.7-18-9.2-5.5-2.4-21.5-8.2-35.5-12.9-14-4.6-29.6-10.3-34.5-12.7-5-2.4-11-5.7-13.3-7.5a30.8 30.8 0 01-7-7.8c-2.4-4.2-2.7-5.9-2.7-13.3s.3-9 2.8-13.3c1.7-2.9 4.7-6 8-8.2 2.8-2 8.1-4.5 11.7-5.6a74.7 74.7 0 0118.5-2.6 100 100 0 0139 5.3 129 129 0 0114 5.7 138.3 138.3 0 0120 12.9c2 1.9 2 1.8 8.6-5.4l17.3-19.8c5.9-6.9 10.7-12.8 10.6-13.3a30 30 0 00-5.3-5.3 149.6 149.6 0 00-28.7-19 166.6 166.6 0 00-58-15.3c-6.3-.6-15.3-1-20-1-4.7.1-12.1.5-16.5 1z"/></svg>