<!--
    Modified from: https://github.com/dani-garcia/vaultwarden/blob/7cb19ef/src/static/images/vaultwarden-icon.png
    Copyright: 2018-2021 Contributors to the vaultwarden project
    License: GPL-3.0
-->
<svg xmlns="http://www.w3.org/2000/svg" baseProfile="tiny-ps" version="1.2" viewBox="0 0 425 421"><path fill-rule="evenodd" d="M211.8 0c1.3 0 3.1 1.2 4.4 2.9 1.3 1.6 4.4 6.3 7 10.5 3.7 5.7 5.4 7.6 7 7.6 1.6 0 4.8-2.6 10.3-8.4C246.3 6.4 249.2 4 251 4c1.4 0 3.3.7 4.2 1.7 1 1 3.2 6 5.1 11.3 2.7 7.5 4 9.8 6 10.8 2.5 1.1 3.3.8 11.7-5.3 6.3-4.6 9.9-6.5 12-6.5 2 0 3.5.7 4.4 2.3a48 48 0 012.7 11.7c1 7.6 1.7 10 5.9 14l9.8-4.5a55.8 55.8 0 0112.2-4.6c1.4 0 3.4 1 4.5 2.2 1.9 2 2 2.9 1.3 13.5-.8 11.1-.8 11.4 1.4 12.8 2 1.2 3.6 1 12.8-1a52.2 52.2 0 0112.8-2 6 6 0 013.3 2.9c.9 1.7.6 4.6-1.4 13.2-2.3 9.8-2.4 11.2-1.1 13 1.3 1.8 2.4 2 13.2 1.7 10.1-.2 12 0 13.5 1.5 1 1 1.8 2.7 1.8 3.8 0 1.1-2 6.5-4.5 12-3.7 8.4-4.2 10.3-3.2 12.2.9 1.8 2.5 2.5 7.1 3.2l10.5 1.6c2.5.4 5.5 1.3 6.8 2.1 1.5 1 2.3 2.4 2.2 4.2 0 1.7-2.4 6.2-6.5 12-5.4 7.6-6.4 9.6-5.6 11.4.6 1.7 3.4 3.3 11 6.3a42.1 42.1 0 0111.7 6 7.5 7.5 0 011.4 3.5c0 .8-3.9 5.3-8.5 10-5.5 5.5-8.5 9.3-8.5 10.8 0 1.7 1.8 3.3 7.6 7 4.2 2.6 9 5.7 10.5 7 1.6 1.2 2.9 3.1 2.9 4.2s-1.3 3.2-2.8 4.8a81 81 0 01-10.5 7.4c-6 3.7-7.7 5.3-7.7 7 0 1.5 3 5.3 8.5 10.8 4.6 4.7 8.4 9.2 8.5 10 0 .8-.6 2.4-1.4 3.5-.7 1.1-6 3.8-11.6 6-7.7 3-10.5 4.6-11.1 6.3-.8 1.8.2 3.8 5.6 11.4 4.2 6 6.5 10.3 6.5 12 0 1.8-.8 3.3-2.3 4.2-1.2.8-7 2.2-12.7 3-5.8 1-10.6 1.8-10.6 2l-1.2 2.1c-.9 1.6-.2 3.9 3.4 11.8a60.8 60.8 0 014.4 12c0 1.2-.7 3-1.7 4-1.5 1.4-3.7 1.7-13.8 1.7-10.5 0-12.1.1-13.2 1.7-.7 1-1 2.5-.8 3.3l2.5 11c1.8 7.4 2 10 1.1 11.8a6 6 0 01-3.4 2.8c-1.2.3-7-.6-12.7-2-9.3-2.1-10.7-2.2-12.5-1-1.8 1.3-2 2.6-2 13.5 0 11.8 0 12.2-5 16.1l-10.5-4.7c-7-3-11.3-4.5-12.8-4a5.1 5.1 0 00-3 2.8c-.5 1.2-1.5 6-2.2 10.7-.7 4.7-1.9 9.5-2.6 10.8-1 1.5-2.4 2.2-4.4 2.2-2.1 0-5.7-2-12-6.5-8.4-6-9.2-6.4-11.6-5.3-2.1 1-3.4 3.3-6 10.8a53.2 53.2 0 01-5.2 11.3c-1 1-2.8 1.7-4.2 1.7-1.8 0-4.7-2.4-10.5-8.6-5.5-5.8-8.7-8.5-10.3-8.4-1.6 0-3.3 1.9-7 7.6-2.6 4.2-5.7 9-7 10.5-1.3 1.7-3.1 2.9-4.4 2.9-1.3 0-2.8-.4-3.4-.8-.7-.4-3.8-5-7.1-10.2-4.5-7.2-6.6-9.6-8.4-9.8-1.9-.3-4.2 1.5-10.7 8.2-5.4 5.7-9 8.6-10.4 8.6-1.3 0-3-.7-4-1.7s-3.4-6.3-5.5-11.7c-2.8-7.4-4.4-10.1-6-10.7-2-.8-3.9.2-11.6 5.6-6 4.3-10.1 6.5-12 6.5-1.7 0-3.2-.8-4.1-2.3-.8-1.2-2.1-6.7-3-12.2-1.2-6.8-2.2-10.4-3.4-11.3-1-.7-2.3-1.2-3-1.2-.6 0-5.1 1.8-10 4-4.8 2-9.4 4-10.2 4-.8.1-2 .2-2.8.1a6 6 0 01-2.7-1.6c-1.2-1.2-1.5-4.1-1.5-13.3 0-10-.2-12-1.7-13.4-1.7-1.5-2.4-1.5-11.8.8a97.8 97.8 0 01-12 2.4c-1.1 0-2.8-.8-3.8-1.8S61 356.4 61 355c0-1.4 1.1-6.8 2.4-12 2.2-8.9 2.3-9.6.8-11.3-1.5-1.6-3.3-1.8-13.2-1.8-6.3 0-12-.2-12.6-.6a9.8 9.8 0 01-2.3-3c-1-2-.4-3.8 3.5-12.6 2.9-6.6 4.3-11 4-12.4a5 5 0 00-2.9-3.2c-1.2-.4-6-1.4-10.7-2-4.7-.8-9.5-2-10.8-2.7a4.8 4.8 0 01-2.2-4.1c0-1.9 2.2-6 6.5-12 5.4-7.7 6.4-9.7 5.6-11.6-.6-1.6-3.4-3.2-10.7-6-5.4-2.1-10.7-4.6-11.7-5.5-1-1-1.8-2.7-1.7-4 0-1.4 2.9-5 8.5-10.4 5.9-5.7 8.6-9 8.5-10.6 0-1.6-1.9-3.3-7.6-7-4.2-2.6-9-5.7-10.5-7-1.8-1.4-2.9-3.1-2.9-4.7s1-3.3 2.9-4.8c1.6-1.2 6.3-4.3 10.5-7 5.7-3.5 7.6-5.3 7.6-7 0-1.5-2.6-4.8-8.5-10.4-5.6-5.5-8.5-9-8.5-10.6 0-1.2.7-3 1.7-3.9 1-1 5-2.9 8.8-4.3l9.9-3.8a7.6 7.6 0 003.8-3.4c.7-2-.3-4-5.7-11.6-4.3-6-6.5-10.1-6.5-12 0-1.7.8-3.2 2.3-4 1.2-.9 6-2 10.7-2.7 4.7-.7 9.5-1.7 10.8-2.1a5 5 0 002.8-3.2c.3-1.4-1.1-5.8-4-12.5-4-8.7-4.4-10.5-3.5-12.5a9.9 9.9 0 012.3-3c.6-.4 6.1-.6 12.3-.5 10.1.3 11.4.1 13.2-1.7 1.9-2 1.9-2.1-.5-11.5a88.3 88.3 0 01-2.3-12 7 7 0 011.7-4.3 6 6 0 013.7-1.7c1.1 0 6.5 1 12 2.4 9.4 2.3 10.1 2.3 11.8.8 1.5-1.5 1.8-3.4 1.7-13.5 0-9.4.3-12 1.6-13.2.8-.8 2-1.5 2.7-1.6H99c.8 0 5.4 1.9 10.3 4 4.8 2.3 9.3 4.1 10 4.1.6 0 2-.5 3-1.2 1-.9 2.1-4.5 3.3-11.3.9-5.5 2.2-11 3-12.3a4.8 4.8 0 014.2-2.2c1.8 0 5.9 2.2 12 6.5 7.6 5.4 9.6 6.4 11.4 5.6 1.7-.6 3.3-3.4 6.1-10.7 2.1-5.4 4.6-10.7 5.5-11.7 1-1 2.7-1.8 4-1.7 1.4 0 5 2.9 10.4 8.6 6.5 6.7 8.8 8.5 10.7 8.2 1.8-.2 3.9-2.6 8.4-9.8 3.3-5.2 6.4-9.8 7-10.2.7-.4 2.2-.8 3.4-.8zm-12.2 44.6a10.2 10.2 0 00-1.1 7.4c.4 2 2.2 5 4.1 6.8 2.7 2.5 4.3 3.2 7.4 3.2 2.2 0 5.3-.8 7-1.8 1.6-1 3.6-3 4.5-4.5a16 16 0 001.5-6.5c0-2.4-.7-4.7-2.2-6.6a16 16 0 00-10.6-5.6c-1 0-3.3.8-5.2 1.9-2 1-4.3 3.5-5.4 5.7zm-59.1 24.8c-5.5 2-10.3 4-10.6 4.4-.4.4 13.7 39.4 31.2 86.7 17.6 47.3 35.8 96.5 40.7 109.3 4.8 12.8 9 23 9.4 22.5.4-.4 17.8-49.4 38.7-108.8 21-59.4 38-108 37.8-108.1l-8.2-4.2a168.8 168.8 0 00-32.3-11.6L240 58c-24.6 22.6-25.2 23-29.5 23-4.4 0-4.9-.3-16.8-11.5A82 82 0 00180 58a404.4 404.4 0 00-39.5 11.4zm199.8 60.1L298 243.8c-22.6 61.1-41 111.4-40.9 111.7.2.3 4.2-1 9-2.7l8.7-3.3c5-23.3 7-31.2 7.7-32.8.8-1.5 3-3.5 5-4.4 3.4-1.8 3.8-1.7 18.7 1.5l15.2 3.3c6.7-7.5 12-14.1 16.2-19.6 4.1-5.5 9.5-13.6 11.8-18a159.3 159.3 0 0012.4-30.8c1-4 2.4-11.7 3-17.2.8-6.5.9-14.9.4-23.9l-.8-13.8c-21.7-9.6-28.9-12.9-30-13.5-1.1-.6-2.8-2.8-3.9-5-1.1-2.4-1.6-4.7-1.1-6.3.3-1.4 4-10 8-19.3L345 133l-3.8-6.5-1 3zM86 153.8c3.3 7.8 6 15.5 6 17.2 0 1.9-1 4.2-2.8 6-1.8 2-7.5 5.3-16.7 9.4l-14 6.2c0 28.9.5 33.9 2.4 42.4a225 225 0 005.8 20.5 213 213 0 0031.5 57.8l2.3 2.9c20.2-4.2 27.6-5.4 29.5-5.3 2 0 4.5.7 5.8 1.6 1.2.8 2.7 2.5 3.3 3.8.5 1.2 2.5 9 4.2 17.2l3.2 15c5.4 2.6 9.3 4.1 12 5 2.8 1 5.1 1.4 5.3 1 0-.2-18.2-50.7-40.6-112a3283 3283 0 00-42-111.5c-.7 0-1.2 1.7-1.2 4.3 0 2.8 2 8.7 6 18.4zm-35.3 3.5A18 18 0 0049 163a14.2 14.2 0 005.8 10c1.6 1.3 4.2 2 6.5 2 2 0 5-.7 6.7-1.5 1.7-.8 3.7-2.8 4.5-4.5.8-1.7 1.5-4.5 1.5-6.3 0-1.7-1-4.7-2-6.4a13.2 13.2 0 00-3.8-4.2c-1-.5-3-1.1-4.7-1.5-2-.4-4.5 0-7 1.2a11 11 0 00-5.8 5.5zm297.4 2.2c-1.3 3.5-1.3 4.5 0 8a14 14 0 005 6.3c2.7 2 4.3 2.3 7.9 1.9 3.6-.4 5.2-1.3 7.8-4.1 2.6-3 3.2-4.4 3.2-8.1 0-3.7-.6-5.2-3.3-8-2.5-3-4.1-3.8-7.7-4.2-3.6-.4-5.2 0-8 1.9-2.2 1.5-4 3.9-5 6.3zM107.5 333a17 17 0 00-1.5 6.3c0 1.7 1 4.8 2.3 6.7 1.3 2 3.7 4 5.7 4.7 2.3.8 4.7.9 7 .3 2-.5 4.5-2 5.7-3.2 1.2-1.3 2.6-3.5 3.2-5 .8-2 .8-4 .1-6.8-.6-2.4-2.2-5-4-6.5a9.9 9.9 0 00-7.3-2.5c-2.3 0-5.4.7-7 1.5a12 12 0 00-4.2 4.5zm185.8-1.4c-.7 1-1.6 4-2 6.4-.4 3.2-.1 5.4 1 7.5 1 1.6 3.1 3.9 5 4.9 2.4 1.4 4.3 1.7 7.7 1.3 3.3-.4 5.2-1.4 7.3-3.6 1.5-1.7 3-4.6 3.3-6.4.4-2.1 0-4.5-1.2-7.1-1-2.2-2.8-4.5-3.9-5.3-1.1-.7-3.6-1.5-5.5-1.8-2-.3-5 0-7 .8a12 12 0 00-4.7 3.3z"/></svg>